# xmcd
#
# Track frame offsets:
#	150
#	11139
#	23918
#	38408
#	51938
#	66087
#	77453
#	96692
#	114556
#	128592
#	140539
#	152084
#	168234
#	187299
#	200630
#	216233
#	231896
#	247562
#
# Disc length: 3453 seconds
#
# Revision: 1
# Processed by: cddbd v1.5.2PL0 Copyright (c) Steve Scherf et al.
# Submitted via: audiograbber 1.83.01
#
DISCID=f60d7b12
DTITLE=Pure Country - Vol.2
DYEAR=2007
DGENRE=Country
TTITLE0=George Jones and Gene Pitney - That`s all it took
TTITLE1=David Allen Coe - Lead me not into temptation
TTITLE2=Lee Greenwood - Dixie road
TTITLE3=Mel McDaniel - Baby`s got her blue jeans on
TTITLE4=Moe Bandy - Till i`m too old to die young
TTITLE5=Sonny James - Young love
TTITLE6=John Denver - To the wild country
TTITLE7=Bobby Bare - The jogger
TTITLE8=Tanya Tucker - Blood red and going down
TTITLE9=Tammy Wynette - Stand by your man
TTITLE10=Kitty Wells - It wasn`t god who made honky angels
TTITLE11=Boxcar Willie  - Your cheatin` heart
TTITLE12=Dollie Parton - Light of a clear blue morning
TTITLE13=Johnny Paycheck - Drinkin`and driven`
TTITLE14=Juice Newton - Queen of hearts
TTITLE15=Buck Owens - Dust on my bible
TTITLE16=Linda Ronstadt - Better walk the line
TTITLE17=Kenny Rogers - Me and Bobby McGee
EXTD=
EXTT0=
EXTT1=
EXTT2=
EXTT3=
EXTT4=
EXTT5=
EXTT6=
EXTT7=
EXTT8=
EXTT9=
EXTT10=
EXTT11=
EXTT12=
EXTT13=
EXTT14=
EXTT15=
EXTT16=
EXTT17=
PLAYORDER=
